<svg width="65" height="64" viewBox="0 0 65 64" fill="none" xmlns="http://www.w3.org/2000/svg">
<g clip-path="url(#clip0_16292_24)">
<path fill-rule="evenodd" clip-rule="evenodd" d="M28.2177 48.5533L25.668 56.3664H37.3771L34.1159 47.3325L28.2177 48.5533Z" fill="#5D7389"/>
<path fill-rule="evenodd" clip-rule="evenodd" d="M34.1157 47.3324L28.0989 44.3781L20.9834 43.5688L25.6678 56.3663L34.1157 47.3324Z" fill="#32485C"/>
<path fill-rule="evenodd" clip-rule="evenodd" d="M34.1157 47.3327L35.7864 38.8848L28.3745 39.394L20.9834 43.5691L34.1157 47.3327Z" fill="#091F34"/>
<path fill-rule="evenodd" clip-rule="evenodd" d="M43.307 47.9082L41.5596 56.3665H53.6873L48.9681 43.8726L43.307 47.9082Z" fill="#5D7389"/>
<path fill-rule="evenodd" clip-rule="evenodd" d="M48.9679 43.8723L42.379 43.1084L38.6748 47.6254L41.5594 56.3663L48.9679 43.8723Z" fill="#32485C"/>
<path fill-rule="evenodd" clip-rule="evenodd" d="M48.9673 43.8726L42.9749 38.5918L35.7861 38.8848L38.6742 47.6257L48.9673 43.8726Z" fill="#091F34"/>
<path fill-rule="evenodd" clip-rule="evenodd" d="M48.9673 43.8727L49.18 27.3501L40.76 31.6578L35.7861 38.8849L48.9673 43.8727Z" fill="#32485C"/>
<path fill-rule="evenodd" clip-rule="evenodd" d="M35.7861 38.8847L49.18 27.3499L40.5996 24.2944L36.7802 25.5257L34.1084 28.8218L35.7861 38.8847Z" fill="#5D7389"/>
<path fill-rule="evenodd" clip-rule="evenodd" d="M35.7864 38.8848L36.7805 25.5258L32.8077 20.5693H24.4121L26.1317 30.0462L35.7864 38.8848Z" fill="#32485C"/>
<path fill-rule="evenodd" clip-rule="evenodd" d="M29.5185 28.7905L22.8913 35.5119L20.9834 43.5692L35.7864 38.8848L29.5185 28.7905Z" fill="#1E3448"/>
<path fill-rule="evenodd" clip-rule="evenodd" d="M20.983 43.5692L29.5181 28.7905L25.5104 25.3095L13.8779 21.5181L15.6638 36.1223L20.983 43.5692Z" fill="#5D7389"/>
<path fill-rule="evenodd" clip-rule="evenodd" d="M20.9837 43.5692L13.8787 21.5181L9.05826 33.0808L6.18066 40.9776L10.4569 44.3121L20.9837 43.5692Z" fill="#1E3448"/>
<path fill-rule="evenodd" clip-rule="evenodd" d="M6.18068 40.9775L4.08789 48.672L12.187 47.9744L20.9837 43.5691L6.18068 40.9775Z" fill="#091F34"/>
<path fill-rule="evenodd" clip-rule="evenodd" d="M4.08789 48.6718L6.05512 53.4329L13.7915 56.3663L20.9837 43.5688L4.08789 48.6718Z" fill="#32485C"/>
<path fill-rule="evenodd" clip-rule="evenodd" d="M4.08735 48.6719L1.99805 56.3664H13.7909L4.08735 48.6719Z" fill="#5D7389"/>
<path fill-rule="evenodd" clip-rule="evenodd" d="M13.8788 21.5181L6.55739 27.932L6.18066 40.9772L13.8788 21.5181Z" fill="#BCD4EB"/>
<path fill-rule="evenodd" clip-rule="evenodd" d="M29.5181 28.7905L24.4117 20.5693L13.8779 21.5181L29.5181 28.7905Z" fill="#8DA5BA"/>
<path fill-rule="evenodd" clip-rule="evenodd" d="M41.3913 21.6993L49.18 27.3499L52.0925 22.2923L49.6858 18.6752L46.6652 16.6976L37.5859 14.7129L41.3913 21.6993Z" fill="#5D7389"/>
<path fill-rule="evenodd" clip-rule="evenodd" d="M49.1807 27.35L61.1724 21.239L54.3569 18.0161L49.6864 18.6753L49.1807 27.35Z" fill="#1E3448"/>
<path fill-rule="evenodd" clip-rule="evenodd" d="M49.6865 18.6752L61.1725 21.2389L59.8575 17.0114L57.1578 14.5454L53.4221 14.9361L49.6865 18.6752Z" fill="#8DA5BA"/>
<path fill-rule="evenodd" clip-rule="evenodd" d="M61.1719 21.2389L63.0101 16.0522L57.1572 14.5454L61.1719 21.2389Z" fill="#BCD4EB"/>
<path fill-rule="evenodd" clip-rule="evenodd" d="M57.1571 14.5457L53.6447 11.2007L49.3057 14.4759L49.6859 18.6754L57.1571 14.5457Z" fill="#32485C"/>
<path fill-rule="evenodd" clip-rule="evenodd" d="M53.6446 11.2007L43.9271 12.4564L37.5859 14.7131L49.6858 18.6754L53.6446 11.2007Z" fill="#BCD4EB"/>
<path fill-rule="evenodd" clip-rule="evenodd" d="M47.1011 12.0447L49.6404 10.3983L47.3034 8.58108L45.1653 8.21484L44.3665 9.71119L43.9375 12.4806L47.1011 12.0447Z" fill="#8DA5BA"/>
<path fill-rule="evenodd" clip-rule="evenodd" d="M36.7805 25.5257L39.836 21.2982L37.5863 14.7129L24.4121 20.5692L36.7805 25.5257Z" fill="#5D7389"/>
<path fill-rule="evenodd" clip-rule="evenodd" d="M49.1801 27.3499L37.586 14.7129L36.7803 25.5257L49.1801 27.3499Z" fill="#8DA5BA"/>
<path fill-rule="evenodd" clip-rule="evenodd" d="M22.6332 50.5103L20.788 52.4601L19.4766 56.3666H24.7748L22.6332 50.5103Z" fill="#5D7389"/>
<path fill-rule="evenodd" clip-rule="evenodd" d="M22.6329 50.5102L20.7528 49.1499L18.2764 50.2347L19.4762 56.3666L22.6329 50.5102Z" fill="#32485C"/>
<path fill-rule="evenodd" clip-rule="evenodd" d="M22.6333 50.5099L20.823 45.564L18.2559 50.1298L18.2768 50.2344L22.6333 50.5099Z" fill="#091F34"/>
<path fill-rule="evenodd" clip-rule="evenodd" d="M43.9277 12.4564L49.6341 10.374L53.6453 11.2007L49.6864 18.6719L43.9277 12.4564Z" fill="#5D7389"/>
</g>
<defs>
<clipPath id="clip0_16292_24">
<rect width="64" height="64" fill="white" transform="translate(0.15625)"/>
</clipPath>
</defs>
</svg>
